<svg width="31" height="25" viewBox="0 0 31 25" fill="none" xmlns="http://www.w3.org/2000/svg">
<path fill-rule="evenodd" clip-rule="evenodd" d="M11.3242 17.6377V7.21543C11.3242 4.94621 9.48465 3.10664 7.21543 3.10664C4.94621 3.10664 3.10664 4.94621 3.10664 7.21543V17.6377C3.10664 19.9069 4.94621 21.7465 7.21543 21.7465C9.48465 21.7465 11.3242 19.9069 11.3242 17.6377ZM7.21543 0C3.23046 0 0 3.23046 0 7.21543V17.6377C0 21.6227 3.23046 24.8531 7.21543 24.8531C11.2004 24.8531 14.4309 21.6227 14.4309 17.6377V7.21543C14.4309 3.23046 11.2004 0 7.21543 0Z" fill="#007AFF"/>
<path d="M24.6727 12.7546C27.8666 12.7546 30.4651 10.2534 30.4651 7.17907C30.4651 4.10471 27.8666 1.60352 24.6727 1.60352C24.6602 1.60352 24.6478 1.60371 24.6355 1.60417H19.9039C19.9034 1.60417 19.903 1.60411 19.9026 1.60411C19.338 1.60411 18.8804 2.04464 18.8804 2.58803V14.7225H17.8581C17.2936 14.7225 16.8359 15.163 16.8359 15.7064C16.8359 16.2498 17.2936 16.6903 17.8581 16.6903H18.8803V22.2659C18.8803 22.8093 19.338 23.2498 19.9025 23.2498C20.467 23.2498 20.9247 22.8093 20.9247 22.2659V16.6903H24.6727C25.2372 16.6903 25.6949 16.2498 25.6949 15.7064C25.6949 15.163 25.2372 14.7225 24.6727 14.7225H20.9247V12.7546H24.6727ZM24.6727 3.57202C24.6837 3.57202 24.6948 3.57182 24.7057 3.57149C26.7573 3.58855 28.4207 5.20034 28.4207 7.17907C28.4207 9.16837 26.7394 10.7868 24.6727 10.7868H20.9247V3.57202H24.6727Z" fill="#007AFF"/>
<path fill-rule="evenodd" clip-rule="evenodd" d="M30.8797 7.1788C30.8797 10.4967 28.0808 13.1686 24.6731 13.1686H21.3393V14.308H24.6731C25.4513 14.308 26.1095 14.9192 26.1095 15.7061C26.1095 16.493 25.4513 17.1043 24.6731 17.1043H21.3393V22.2656C21.3393 23.0525 20.6811 23.6637 19.9029 23.6637C19.1246 23.6637 18.4665 23.0525 18.4665 22.2656V17.1043H17.8585C17.0803 17.1043 16.4221 16.493 16.4221 15.7061C16.4221 14.9192 17.0803 14.308 17.8585 14.308H18.4666V2.58782C18.4666 1.80091 19.1247 1.18961 19.903 1.18961C19.9056 1.18961 19.908 1.18964 19.9104 1.18968H24.6289C24.6442 1.18921 24.6589 1.18902 24.6731 1.18902C28.0808 1.18902 30.8797 3.86092 30.8797 7.1788ZM24.6355 1.60417C24.6478 1.60371 24.6602 1.60352 24.6727 1.60352C27.8666 1.60352 30.4651 4.10471 30.4651 7.17907C30.4651 10.2534 27.8666 12.7546 24.6727 12.7546H20.9247V14.7225H24.6727C25.2372 14.7225 25.6949 15.163 25.6949 15.7064C25.6949 16.2498 25.2372 16.6903 24.6727 16.6903H20.9247V22.2659C20.9247 22.8093 20.467 23.2498 19.9025 23.2498C19.338 23.2498 18.8803 22.8093 18.8803 22.2659V16.6903H17.8581C17.2936 16.6903 16.8359 16.2498 16.8359 15.7064C16.8359 15.163 17.2936 14.7225 17.8581 14.7225H18.8804V2.58803C18.8804 2.04464 19.3393 1.60417 19.9039 1.60417H24.6355ZM19.9354 1.19087C19.9363 1.19094 19.9343 1.19079 19.9314 1.19059L19.9354 1.19087ZM24.7098 3.98549C24.6981 3.98578 24.6858 3.98596 24.6731 3.98596H21.3393V10.3723H24.6731C26.526 10.3723 28.0069 8.92458 28.0069 7.1788C28.0069 5.44451 26.5457 4.00446 24.7098 3.98549ZM24.7057 3.57149L24.6727 3.57202H20.9247V10.7868H24.6727C26.7394 10.7868 28.4207 9.16837 28.4207 7.17907C28.4207 5.20034 26.7573 3.58855 24.7057 3.57149Z" fill="#007AFF"/>
</svg>
