<svg width="30" height="29" viewBox="0 0 30 29" fill="none" xmlns="http://www.w3.org/2000/svg">
<path d="M6.88785 1C3.64129 1 1 3.59547 1 6.78571C1 9.97596 3.64129 12.5714 6.88785 12.5714C10.1344 12.5714 12.7757 9.97596 12.7757 6.78571C12.7757 3.59547 10.1344 1 6.88785 1ZM6.88785 8.71429C5.80566 8.71429 4.92523 7.84913 4.92523 6.78571C4.92523 5.7223 5.80566 4.85714 6.88785 4.85714C7.97004 4.85714 8.85047 5.7223 8.85047 6.78571C8.85047 7.84913 7.97004 8.71429 6.88785 8.71429Z" fill="#007AFF"/>
<path d="M22.5871 16.4287C19.3405 16.4287 16.6992 19.0242 16.6992 22.2144C16.6992 25.4047 19.3405 28.0001 22.5871 28.0001C25.8336 28.0001 28.4749 25.4047 28.4749 22.2144C28.4749 19.0242 25.8336 16.4287 22.5871 16.4287ZM22.5871 24.143C21.5049 24.143 20.6245 23.2778 20.6245 22.2144C20.6245 21.151 21.5049 20.2859 22.5871 20.2859C23.6693 20.2859 24.5497 21.151 24.5497 22.2144C24.5497 23.2778 23.6693 24.143 22.5871 24.143Z" fill="#007AFF"/>
<path d="M23.6781 1.32395C22.7764 0.733423 21.5578 0.972693 20.9565 1.85894L5.25557 25.0018C4.65435 25.888 4.89811 27.0854 5.8 27.6762C6.70175 28.2669 7.92028 28.0276 8.52162 27.1412L24.2226 3.99837C24.8238 3.11225 24.58 1.91487 23.6781 1.32395Z" fill="#007AFF"/>
<path d="M6.88785 1C3.64129 1 1 3.59547 1 6.78571C1 9.97596 3.64129 12.5714 6.88785 12.5714C10.1344 12.5714 12.7757 9.97596 12.7757 6.78571C12.7757 3.59547 10.1344 1 6.88785 1ZM6.88785 8.71429C5.80566 8.71429 4.92523 7.84913 4.92523 6.78571C4.92523 5.7223 5.80566 4.85714 6.88785 4.85714C7.97004 4.85714 8.85047 5.7223 8.85047 6.78571C8.85047 7.84913 7.97004 8.71429 6.88785 8.71429Z" stroke="white" stroke-width="1.5"/>
<path d="M22.5871 16.4287C19.3405 16.4287 16.6992 19.0242 16.6992 22.2144C16.6992 25.4047 19.3405 28.0001 22.5871 28.0001C25.8336 28.0001 28.4749 25.4047 28.4749 22.2144C28.4749 19.0242 25.8336 16.4287 22.5871 16.4287ZM22.5871 24.143C21.5049 24.143 20.6245 23.2778 20.6245 22.2144C20.6245 21.151 21.5049 20.2859 22.5871 20.2859C23.6693 20.2859 24.5497 21.151 24.5497 22.2144C24.5497 23.2778 23.6693 24.143 22.5871 24.143Z" stroke="white" stroke-width="1.5"/>
<path d="M23.6781 1.32395C22.7764 0.733423 21.5578 0.972693 20.9565 1.85894L5.25557 25.0018C4.65435 25.888 4.89811 27.0854 5.8 27.6762C6.70175 28.2669 7.92028 28.0276 8.52162 27.1412L24.2226 3.99837C24.8238 3.11225 24.58 1.91487 23.6781 1.32395Z" stroke="white" stroke-width="1.5"/>
</svg>
