<svg width="29" height="33" viewBox="0 0 29 33" fill="none" xmlns="http://www.w3.org/2000/svg">
<path d="M27.6271 5.34354L14.9943 0.0985408C14.6778 -0.0328147 14.3221 -0.0328791 14.0057 0.0985408L1.3729 5.34354C0.891754 5.54335 0.578125 6.01308 0.578125 6.53406V12.9101C0.578125 21.6894 5.88449 29.5867 14.0129 32.9044C14.3251 33.0318 14.6749 33.0318 14.9871 32.9044C23.1154 29.5867 28.4219 21.6895 28.4219 12.9101V6.53406C28.4219 6.01308 28.1083 5.54335 27.6271 5.34354ZM25.8438 12.9101C25.8438 20.3734 21.4609 27.2439 14.5 30.3107C7.72507 27.3259 3.15625 20.5757 3.15625 12.9101V7.39463L14.5 2.68479L25.8438 7.39463V12.9101ZM13.0752 17.2551L18.6158 11.7145C19.1192 11.2112 19.9354 11.2111 20.4388 11.7145C20.9423 12.218 20.9422 13.0342 20.4388 13.5375L13.9867 19.9896C13.4832 20.4931 12.667 20.4929 12.1637 19.9896L8.56116 16.3871C8.05772 15.8836 8.05772 15.0675 8.56116 14.5641C9.0646 14.0607 9.88077 14.0606 10.3842 14.5641L13.0752 17.2551Z" fill="#007AFF"/>
</svg>
